<svg xmlns="http://www.w3.org/2000/svg" viewBox="-0.75 -0.75 48 48" height="48" width="48"><g><path d="M45.046875 29.0625v6.78125a2.90625 2.90625 0 0 1 -2.90625 2.90625H4.359375a2.90625 2.90625 0 0 1 -2.90625 -2.90625V29.0625a5.8125 5.8125 0 0 0 0 -11.625V10.65625A2.90625 2.90625 0 0 1 4.359375 7.75h37.78125a2.90625 2.90625 0 0 1 2.90625 2.90625V17.4375a5.8125 5.8125 0 0 0 0 11.625Z" fill="none" stroke="#e0dd23" stroke-linecap="round" stroke-linejoin="round" stroke-width="1.5"></path><path d="M14.046875 17.4375a2.90625 2.90625 0 1 0 5.8125 0 2.90625 2.90625 0 1 0 -5.8125 0" fill="none" stroke="#e0dd23" stroke-linecap="round" stroke-linejoin="round" stroke-width="1.5"></path><path d="M28.09375 29.0625a2.90625 2.90625 0 1 0 5.8125 0 2.90625 2.90625 0 1 0 -5.8125 0" fill="none" stroke="#e0dd23" stroke-linecap="round" stroke-linejoin="round" stroke-width="1.5"></path><path d="m30.515625 15.984375 -14.53125 14.53125" fill="none" stroke="#e0dd23" stroke-linecap="round" stroke-linejoin="round" stroke-width="1.5"></path></g></svg>